<svg xmlns="http://www.w3.org/2000/svg" viewBox="0 0 394.43 320.06"><defs><style>.cls-1{fill:#F21DB9;}</style></defs><title>Asset 2</title><g id="Layer_2" data-name="Layer 2"><g id="Layer_1-2" data-name="Layer 1"><path class="cls-1" d="M393.4,311.22a10,10,0,0,0-1.71-4.25c-1.85-3.13-4.41-5.79-6.09-9-.94-1.78-2.08-3.43-2.94-5.28a79.14,79.14,0,0,0-4.72-7.95c-.27-.46-.6-.89-.88-1.35a150,150,0,0,0-9.22-13.16c-2.21-2.87-4.61-5.61-6.7-8.58a79.67,79.67,0,0,0-10.12-11c-2-1.93-4.35-3.51-6.54-5.25a22.77,22.77,0,0,0-2.49-2,14.08,14.08,0,0,1-4.85-4c-.41-.58-1.29-.83-2-1.19-2.88-1.51-6.07-2-9.18-2.78-5.05-1.21-10-2.58-14.6-5.15a19,19,0,0,1-3.33-2,3.3,3.3,0,0,0-.77-.45,9,9,0,0,1-2.71-1.26c-.59-.59-.53-1.79-1-2.54-1-1.48-2.32-2.74-3.19-4.28a18.52,18.52,0,0,0-4.17-4.6c-2-1.72-4.41-2-6.85-2.18-1-.08-1.91,0-2.86,0-1.16,0-1.18-.06-1.19-1.21,0-.29.1-.67,0-.87-1-1.44-.48-2.87,0-4.3a52.68,52.68,0,0,0,2-10.32c.29-2.78.41-5.58.74-8.36a40.9,40.9,0,0,1,1-4.15,7.83,7.83,0,0,0,.4-2,37.54,37.54,0,0,1,.91-8.32c.42-2.15.55-4.36.84-6.54.21-1.53.47-3,.68-4.58a3.64,3.64,0,0,1,1.38-2.42c2.32-1.93,3.19-4.51,3.44-7.41a3.32,3.32,0,0,0-.81-2.81c-.17-.17-.26-.4-.42-.58-1.86-2.16-1.85-4.58-.74-7,.59-1.29.19-2.53.2-3.78,0-3.21-.08-6.43-.12-9.65,0-1.66,0-3.32,0-5l.41,0q.51,2.73,1,5.47l.24,0a9.6,9.6,0,0,0,.08-1.31c-.1-1.78-.23-3.56-.35-5.33a13.63,13.63,0,0,0-.37-3.34,4.33,4.33,0,0,1,.36-2.74,6.56,6.56,0,0,0,.55-4.17,13.27,13.27,0,0,1-.19-1.78c-.13-2.26-.22-4.52-.37-6.78a7.72,7.72,0,0,0-.34-1.38,5.28,5.28,0,0,1-.35-1.35,26.1,26.1,0,0,0-1.68-9.09,4.26,4.26,0,0,1-.25-1c-.1-3-1.29-5.78-1.86-8.68a11.87,11.87,0,0,0-1.28-2.54,3.76,3.76,0,0,1-.59-1.63c.13-2-.74-3.59-1.48-5.28-.9-2.07-1.73-4.17-2.64-6.24-1.14-2.62-2.24-5.26-3.53-7.81a31.45,31.45,0,0,0-2.29-2.94c-1.75-2.6-3.87-5-4.31-8.3a2.38,2.38,0,0,0-.44-1.16c-1.55-1.87-2.28-4.16-3.29-6.32a3.45,3.45,0,0,0-.4-.79c-1.56-2-2.79-4.3-4.83-5.93a3.54,3.54,0,0,0-1.17-.8c-1.83-.43-2.84-1.9-4.05-3.1-2-2-3.95-4-5.91-6-1.79-1.83-3.53-3.71-5.35-5.51a13.34,13.34,0,0,0-1.87-1.32c-.87-.62-1.7-1.31-2.62-1.85-3.43-2-6.58-4.49-10.19-6.25a29.14,29.14,0,0,0-4.49-2.11c-2.74-.79-5.48-1.57-8.25-2.21C218.1,3,213.57,1.91,209,1.13a17.29,17.29,0,0,0-7.47.15,51.15,51.15,0,0,1-8.27,1.37c-2.76.29-5.64-.08-8.28,1.14a2.84,2.84,0,0,1-1.06.16,13.4,13.4,0,0,0-8.12,3.59,4.26,4.26,0,0,1-2.2,1.07c-1.63.29-3.23.82-4.87,1.09a23.82,23.82,0,0,1-3.17.11A6.72,6.72,0,0,0,164,10c-1.88.52-3.77,1-5.61,1.69A22.4,22.4,0,0,0,156.29,13c-1.11.55-2.27,1-3.39,1.53a3,3,0,0,0-1,.78q-2.71,3.31-5.37,6.67a2,2,0,0,0-.43,1.14,4.05,4.05,0,0,1-1.5,2.92c-.78.79-1.34,1.8-2.07,2.64a36.36,36.36,0,0,1-2.71,2.84c-1.44,1.34-3,2.53-4.41,3.92s-2.62,3.1-4,4.61c-2,2.26-2.88,5.18-4.32,7.77s-2.29,5.77-4.18,8.28a4.7,4.7,0,0,0-.59,1.5A102.26,102.26,0,0,1,117,71c-.78,1.72-1.24,3.58-1.87,5.36-.5,1.4-1,2.78-1.58,4.17-1.6,4.17-3.14,8.37-4.81,12.51a19.5,19.5,0,0,0-1.44,5.13,5,5,0,0,1-.6,1.47,15.77,15.77,0,0,0-1.81,6,1.79,1.79,0,0,1-.17.87c-1.75,2.91-2.05,6.33-3.3,9.43-1.15,2.87-1.83,5.92-2.74,8.88-.23.73-.59,1.42-.86,2.14a19.14,19.14,0,0,0-1.06,3c-.42,2.25-.71,4.53-1,6.8a138.34,138.34,0,0,0-.75,23.9c.06,1.75.78,3.49.56,5.31,1.24,2.91,1.77,6,2.69,9a44.53,44.53,0,0,1,1,4.89c.39,2.1.74,4.21,1.15,6.3a2.16,2.16,0,0,0,.56.9c1,1.18,2.08,2.3,3,3.51a22.09,22.09,0,0,1,1.85,2.82c.94,1.65,1.7,3.41,2.75,5a9.88,9.88,0,0,0,2.58,2.36,3.65,3.65,0,0,1,1.72,1.95,1.91,1.91,0,0,0,.44.77,12.63,12.63,0,0,1,2.25,3.59c.7,1.52.67,1.89-.63,3.12a13.29,13.29,0,0,0-3.44,4.94c-.39,1.06-.78,2.12-1.13,3.19a9,9,0,0,1-2.37,3.91c-1.79,1.67-3.59,3.32-5.39,5a35.19,35.19,0,0,0-3.39,3.17,11,11,0,0,0-1.46,3,9.93,9.93,0,0,0-.42,1.73,1.43,1.43,0,0,1-1,1.11A32.45,32.45,0,0,0,84,244.27c-.45.49-.92.93-.8,1.7s-.45,1.41-1.1,1.9c-1.67,1.24-3.33,2.5-5,3.76a8.09,8.09,0,0,0-1.08.94,9.08,9.08,0,0,1-7.74,3,24.91,24.91,0,0,0-8.47.86,15.64,15.64,0,0,0-3.56,1.68,3.87,3.87,0,0,1-2.35.66,5.29,5.29,0,0,0-4.64,1.84,4.32,4.32,0,0,1-1.53,1.2c-2.2.89-3.34,2.65-4.49,4.6a22.08,22.08,0,0,1-5.77,6.27c-1.61,1.21-3.46,1-5.17.71-3.38-.58-5.68.93-7.46,3.49-1,1.4-1,3.15-1.09,4.81a26.05,26.05,0,0,1-.25,3.2c-.38,2-2,3.18-3.37,4.5-1.2,1.15-2.34,2.36-3.5,3.55s-2.57,2.67-3.89,4a40.43,40.43,0,0,0-5.07,6c-.8,1.18-1.85,2.18-2.72,3.32s-1.64,2.4-2.52,3.55a6,6,0,0,1-1.8,1.92c-1.12.56-.73-.29.48-1.93,2.63-3.55,5.37-7,8.16-10.44a93.08,93.08,0,0,1,10.14-10.59c2.25-2,3.57-4.19,3.52-7.27-.08-3.9,1.43-6.95,5.21-8.58a9.12,9.12,0,0,1,4.42-.4,7.76,7.76,0,0,0,6.8-2.84A30.79,30.79,0,0,0,43,265a8.52,8.52,0,0,1,3.87-3.84,6.76,6.76,0,0,0,2.05-1.43,6.52,6.52,0,0,1,4.49-1.94,6.4,6.4,0,0,0,2.75-.73,23.14,23.14,0,0,1,12.31-2.47,9,9,0,0,0,6.7-2.47,39.06,39.06,0,0,1,4.59-3.72,7,7,0,0,0,2.57-3.12A13.06,13.06,0,0,1,87,240.23a40.65,40.65,0,0,1,7-4.23,4.44,4.44,0,0,0,2.83-3.22c.65-3.1,3.29-4.6,5.35-6.51,1.75-1.63,3.45-3.31,5.16-5,1.52-1.48,2-3.49,2.75-5.37a15.78,15.78,0,0,1,3.3-5.69,3.06,3.06,0,0,0,.58-3.92,14.61,14.61,0,0,0-3.5-4.72,17.16,17.16,0,0,1-4.58-5.84,20.16,20.16,0,0,0-4.33-6.31c-2.15-1.9-2.73-4.46-3-7.05-.58-5.51-2.37-10.7-4-15.93-.09-.29-.28-.57-.23-.86.36-2.51-.66-4.9-.57-7.41C94,153.11,93.57,148,94,143s.52-10.32,2.35-15.13c2-5.14,3.44-10.43,5.17-15.63,1.89-5.7,3.65-11.46,5.43-17.2,1.86-6,4.55-11.68,6.57-17.61,2.41-7.07,5.84-13.72,8.28-20.79,1.18-3.43,3.33-6.59,4.8-10A36.27,36.27,0,0,1,137,32.9c2.82-2.34,4.94-5.33,7.3-8.1a2.15,2.15,0,0,0,.47-.76c1-3.6,3.86-5.93,6-8.75a10,10,0,0,1,3.64-2.49,41.21,41.21,0,0,1,7.87-3.4,9.72,9.72,0,0,1,3.15-.56c4.3.17,8.28-.65,11.73-3.45a12.41,12.41,0,0,1,5-2.2c5.14-1.19,10.44-1.09,15.6-2.1A45.18,45.18,0,0,1,207,0c2.56,0,4.93.88,7.4,1.25a109.13,109.13,0,0,1,18.21,4.59,33.58,33.58,0,0,1,6.14,3.29c3.6,2.1,7,4.52,10.57,6.71a2.72,2.72,0,0,1,.42.34c4.08,4.11,8.3,8.07,12.21,12.35a11,11,0,0,0,3.59,2.89,11,11,0,0,1,4,3.54,45,45,0,0,1,3.94,6.15c2.26,4.13,3.31,8.85,6.15,12.67,1.84,2.48,3.82,4.83,5,7.77,1.86,4.52,4.08,9,5.54,13.57,1.29,4.07,3.35,8,3.8,12.22.48,4.48,2,8.71,2.56,13.16.54,4.09.75,8.19,1.14,12.28a3.54,3.54,0,0,1-.06,1.59c-1.61,4.15-.2,8.36-.31,12.54a9.17,9.17,0,0,1,0,2c-.12.5-.39.89-1,.88a.89.89,0,0,1-1-.88,4.23,4.23,0,0,0-.15-1.23c.4,4-.06,8,.65,11.89a6.44,6.44,0,0,1-.49,3.15,6.4,6.4,0,0,0,.65,5.83,8.43,8.43,0,0,1-.85,10.35,10.21,10.21,0,0,0-2.88,6.32c-.45,4.21-1.31,8.38-1.75,12.59-.76,7.28-2.24,14.46-2.82,21.77a42.2,42.2,0,0,1-1.65,7.33,5.37,5.37,0,0,0-.11,3,2.41,2.41,0,0,0,2.42,2c6.3-.12,10.3,3.44,13.41,8.39a51.8,51.8,0,0,0,3.68,5c1.41,1.72,3.66,2.62,5.62,3.75,5.57,3.19,11.76,4.58,17.9,6.13a25.8,25.8,0,0,1,6,1.85,17.87,17.87,0,0,1,4.34,3.09,41.21,41.21,0,0,0,5.22,4.06,86.91,86.91,0,0,1,15.65,14.64,220.56,220.56,0,0,1,15,19.86,119.07,119.07,0,0,1,8.95,14.64A58.64,58.64,0,0,0,391,304c1.85,2.35,3.11,4.14,3.46,7.2"/><path class="cls-1" d="M197.07,264.69c.9,1.35,2.42,1.65,3.8,2.14a29.06,29.06,0,0,0,16.24.7c2.15-.47,4.21-1.29,6.31-2,.49-.16,1-.37,1.59-.6.13,1.49.42,2.8-.42,4.07a2.34,2.34,0,0,0-.2,2.53c.15.28.24.8.09,1-1.25,1.4-.46,3.08-.67,4.61a16.37,16.37,0,0,1-.61,3.57c-1,2.57-2.31,5.1-2.65,7.82-.45,3.52-2.55,6.13-4.12,9-1,1.91-1.91,3.89-2.89,5.83-1.59,3.12-3.23,6.23-4.81,9.36a28.34,28.34,0,0,0-2.21,4.83c-.35,1.22-1.66,1.34-2,2.39,0,.09-.57.09-.81,0a17.77,17.77,0,0,1-2.76-1.28,113.62,113.62,0,0,1-9.53-6.21,133.74,133.74,0,0,1-11.22-9.12c-4.93-4.73-10.11-9.21-15.19-13.8-.75-.67-1.52-1.32-2.24-2a2,2,0,0,1-.77-1.73c0-.32-.32-.7-.53-1s-.85-.83-.88-1.28c-.13-1.68-1.18-3-1.54-4.6a2.61,2.61,0,0,0-.72-1.41c-1-.82-1.27-2.06-1.92-3.08-.07-.09-.18-.2-.17-.29.32-2.67-1.5-4.81-1.82-7.32a.86.86,0,0,0-.41-.54c-1.81-.82-1.51-2.35-1.26-3.8a7.2,7.2,0,0,0-.1-2.81c-.54-2.6-.92-5.25-1.28-7.89a2.66,2.66,0,0,0-.81-1.88,2,2,0,0,1-.39-2.32c.24-.77.26-1.61.47-2.39a14.46,14.46,0,0,1,.94-2.83,5.78,5.78,0,0,0,.79-3.06c0-.37.12-1.05.68-.63s1,.07,1.31-.31a2.58,2.58,0,0,0-.05-3.6,1.68,1.68,0,0,1-.36-1.08,3.14,3.14,0,0,0-.95-2.21,54.46,54.46,0,0,1-3.39-4.6,87.35,87.35,0,0,1-10.36-20.75c-1.57-4.7-1.94-9.53-2.49-14.37-.37-3.25-.69-6.51-1-9.77a2.06,2.06,0,0,0-2.8-1.86c-2.11.57-3.32-.49-2.78-2.55.24-.91-.23-1.47-.57-2.14l.08.12-.21-.67c.17,0,.39,0,.49.12.31.3.52.28.59-.14a2,2,0,0,0-1.76-2.36,1.18,1.18,0,0,1-.61-.27c-1.73-2.14-3-4.42-2.42-7.35.13-.62-.06-1.31,0-1.94a1.94,1.94,0,0,1,.72-1.11c.14-.09.72.27,1,.54a3.51,3.51,0,0,0,2.07,1.46,10.68,10.68,0,0,0-.2-4.08,22.35,22.35,0,0,1-1.08-7.93,18.12,18.12,0,0,0-.54-3.88,6.23,6.23,0,0,1-.05-2.44c.39.92.78,1.83,1.16,2.75.8,1.92,1.6,3.85,2.38,5.79a11.34,11.34,0,0,1,.73,2,11.29,11.29,0,0,0,3.3,5.6,79.23,79.23,0,0,1,5.91,7.15,2.71,2.71,0,0,0,2.5,1.32c1.77-.08,1.77-.06,2.67,1.87a9.73,9.73,0,0,0,.08-1.37c-.13-1.3-.32-2.6-.43-3.91a22.09,22.09,0,0,1-.13-3,8.56,8.56,0,0,1,4.53-7.44,19.87,19.87,0,0,1,8.53-2.48c4.39-.32,8.82-.49,13.22-.43,4.65.07,9.3.43,13.94.76a47.77,47.77,0,0,1,13,2.51,30.08,30.08,0,0,1,4.83,2.3,9.33,9.33,0,0,1,2.24,2,3.29,3.29,0,0,1,.58,3.82,5,5,0,0,1-.56,1.31c-1,1.12-.53,2.3,0,3.28a1.76,1.76,0,0,1,.12,1.64c-.64,1.54-1.36,3-2.05,4.54a.67.67,0,0,1-.14-.79c-.13.32-.21.63.09.91-.36,2-2.1,2.95-3.18,4.39a41.06,41.06,0,0,1-5,5.58,24.9,24.9,0,0,1-4.53,2.76c-.33.19-.77.2-1.12.57a4.91,4.91,0,0,0,1.09-.09,16.9,16.9,0,0,0,7.92-5.32,3.25,3.25,0,0,1,2.67-1.57,14.3,14.3,0,0,1-2.55,4,6.83,6.83,0,0,1-.79.72,6.72,6.72,0,0,0-.75.76c0,.06.36.35.35.52s-.24.37-.42.51a14.19,14.19,0,0,1-5.42,2.67c-2,.52-4.06,1-6.09,1.46a7.16,7.16,0,0,0-1.21.31c-.16.07-.24.35-.36.53a4.54,4.54,0,0,0,.61.24c.16.05.32.06.76.14-.45.3-.7.59-1,.61-1.15.08-1.75,1-2.48,1.63a1,1,0,0,0-.31.77c.42,1.83-.88,2.6-2.1,3.31a16.43,16.43,0,0,0-4.05,3c-.79.87-1.76,1.58-2.63,2.38-1.16,1.06-.78,2.55-1,3.86,0,.29.38.73.68,1a3,3,0,0,1,1,3.37,2.45,2.45,0,0,0,.4,2.15,11.8,11.8,0,0,1,.86,2.4c.93-.82,1.84-1.61,2.73-2.42,1.1-1,1.86-1,3,0,.82.69,1.63,1.39,2.49,2,.42.31,1,.72,1.41.67a1.23,1.23,0,0,1,1.3.68c.24.37.53.69,1,.19.06-.06.41,0,.52.16.53.61.85,1.46,1.82,1.58a.49.49,0,0,1,.25.2c-.62,1.07.56,1.1.93,1.32a8.27,8.27,0,0,0,2.86,1.11,5.64,5.64,0,0,0,2-.54c1.51,1.82,3.68,2.3,6.07,2.21a12.09,12.09,0,0,1,1.59,0c1,.09,2,.45,2.77-.61.26-.36,1.72.21,2.09.74.14.2.17.53.34.61.45.22,1,.56,1.41.43s.54-.79.72-1.24c.06-.15-.13-.4-.3-.83l2.76.56c.34.06.89.26,1,.11.92-1.14,2.52-.55,3.55-1.47-.15-.67-.61-.7-1.2-.7-.87,0-1.75-.09-2.62-.13a1.27,1.27,0,0,0-.65.07,10,10,0,0,1-6.55.71,3,3,0,0,1-2.59-2.3c-1.2,1.48-2.7,1.16-4.2.79s-2.8-1-3-2.81c-2.36.94-3.21.75-4.6-1.29a7.66,7.66,0,0,1-1.27-2.9,1.92,1.92,0,0,0-1.85-1.79,14.79,14.79,0,0,1-2.13-.72c.53-.19.69-.31.81-.28l5.91,1.37a8.46,8.46,0,0,1,2.76,1.14c.64.4,1.76,0,2.65.08a22.45,22.45,0,0,1,2.76.73,2,2,0,0,1,1.7,2,11.89,11.89,0,0,0,.33,1.66h.36c.1-.69.23-1.37.3-2.06a.87.87,0,0,1,1.07-.9c.71.06,1.42.12,2.12.25,1.06.19,2.1.47,3.16.67,2.07.39,2.08.38,2.44,2.43.1,0,.28-.05.28-.08.1-1.65,1-2.36,2.61-2.56,1.29-.15,2.54-.64,3.82-.91,1.45-.31,1.63-.18,2.32,1.73,0-1.89,1-2.32,2.18-2.71,2-.67,3.89-1.47,5.86-2.23.12,1.86-.7,3.25-2.22,3.59a1.63,1.63,0,0,0-1.42,1.12c-.75,2.12-2.45,2.8-4.49,2.75-1.15,0-1.15.87-1.42,1.51a1.1,1.1,0,0,0,.6,1.63,3.82,3.82,0,0,0,2.06.24,13.75,13.75,0,0,0,3.4-1.48c.87-.54,2.11-.55,2.57-1.72,0-.12.45-.19.66-.15.69.14,1.08-.29,1.56-.66a9.29,9.29,0,0,1,2.27-1.34,3.24,3.24,0,0,0,1.81-2.28c.49-1.55,1.89-2.23,2.62-3.48.05-.09.23-.1.31-.18a2.24,2.24,0,0,1,2.68-.72c1,.37,3.06-.47,3.4-1.48.29-.84,1.33-1.75,0-2.61-.1-.06-.06-.47,0-.67.49-1.31-.2-2.25-1-3.53-.34,2-2,2.27-3.22,3-.81.48-1.64.93-2.43,1.44-1.95,1.26-3.86,2.59-5.85,3.79a5.19,5.19,0,0,1-2.36.71,13.2,13.2,0,0,0-3.79,1c-1.74.6-3.53,1.07-5.32,1.55a4.53,4.53,0,0,1-1,0,6,6,0,0,0-2,.09,11.17,11.17,0,0,1-3.42.86,2,2,0,0,1-1.27-.22,2.12,2.12,0,0,0-2.18-.41,4.6,4.6,0,0,1-2.62.06,13.68,13.68,0,0,0-2.72-.09,11.92,11.92,0,0,1-3.45-.68c-1.38-.3-2.76-.58-4.13-.9-.86-.19-1.71-.46-2.57-.66s-1.82-.34-2.73-.54a14.29,14.29,0,0,1-2.16-.57c-1.56-.6-3.36.15-4.83-.9-.57-.4-1.14-.81-1.71-1.2a10.62,10.62,0,0,0-1.35-.86c-.81-.38-1.73-.58-1.34-1.87.06-.2-.42-.68-.74-.85a5,5,0,0,0-1.31-.34c0-.21,0-.4.09-.42.88-.32,2.13-.37,2.57-1a10,10,0,0,1,2-1.89,7.71,7.71,0,0,0,1.56-2.15c.55-1,1.09-1.88,2.42-1.74.16,0,.47-.08.47-.14,0-1.39,1.71-1,2.16-2,.1-.21.82-.34,1.09-.2a2.77,2.77,0,0,0,2.4.06c.39-.13.9.12,1.36.17.75.1,1-.16.87-.9-.09-.53-.27-1-.41-1.56a1.77,1.77,0,0,1,.92-2.41c1.21-.72,2-2.18,3-3.23a7.37,7.37,0,0,1,2.24-1.62c.57-.24.95-.5,1-1,.5-2.71,2.07-4.94,3.29-7.31,1.49-2.91,3.33-5.64,5-8.48a9.31,9.31,0,0,1,3.62-3.37,2.31,2.31,0,0,1,1-.35c1.24-.06,2.48-.07,3.72-.06a4.47,4.47,0,0,1,3.23,1.68,19.52,19.52,0,0,1,3.94,7.15q1.56,4.56,3.23,9.08c.12.34.51.56.75.87a3.31,3.31,0,0,1,.71,1.08c.22,1,.46,1.21,1.42,1.18.54,0,1.18-.8,1.6,0,.5.93,1.92,1.33,1.58,2.75a5.24,5.24,0,0,0,0,1.25,3.91,3.91,0,0,0,1.27,3.37,6.25,6.25,0,0,1,.78,1,11.89,11.89,0,0,0,3.09,1.94,2.22,2.22,0,0,1,.81.37,45.19,45.19,0,0,1,3.82,3.48,5.2,5.2,0,0,1,1.23,4c0,.36-.15.71-.15,1.07,0,.7.5.94,1.1.57a1.81,1.81,0,0,0,.88-2c-.17-1.11-.38-2.23-.5-3.35a4.84,4.84,0,0,1,.18-1.29c-1.62,0-1.61-1.15-1.76-2.27,0-.17-.31-.35-.51-.45-1-.5-1.48-1.19-.93-2.31l-.54-.17-.28-.12.27.14a20.46,20.46,0,0,1,2.09-2.17c.93-.73-.29-1.54.22-2.23a5.08,5.08,0,0,0-1.15-.56c-1.71-.29-3.45-.4-5.13-.81-2.86-.71-5.62-1.69-7.23-4.48a4.18,4.18,0,0,0-.53-.72,11.22,11.22,0,0,1-2.1-2.41,40.9,40.9,0,0,1-1.81-5.75c2.28,4,4.84,7.77,8.67,10.43l.27-.25-.84-.74a27.47,27.47,0,0,1-7.77-12.65c-.21-.68-.38-1.38-.53-2.08-.06-.28-.18-.72,0-.86,1.19-1.17.6-2.58.54-3.87a8.57,8.57,0,0,1,4.94-8.44,25,25,0,0,1,3.93-1.73,44.47,44.47,0,0,1,12.06-2.47c6.2-.32,12.4-.61,18.61-.75,3.51-.07,3.3-.26,3,3.34-.25,2.68-.2,5.37-.41,8-.46,5.65-1,11.29-1.52,16.93,0,.29,0,.58-.05,1a2.61,2.61,0,0,0,.73-.14,26.86,26.86,0,0,0,8.22-8.32c1.84-3,2.24-6.39,3.66-9.46a8.88,8.88,0,0,0,.83-4.53,27.35,27.35,0,0,0-.65-3.22,4.51,4.51,0,0,1,1.21,2.66,12.64,12.64,0,0,1-.27,5.67,10.48,10.48,0,0,0-.44,1.92c-.14,1.2.26,1.46,1.45,1.13a7.51,7.51,0,0,1,1.74,0c-.31.69-.49,1.17-.74,1.62-1.12,2-2.38,4-3.36,6.12a17.67,17.67,0,0,1-9.64,9.13q-3.7,1.53-7.34,3.27c2.26-.37,4.31-1.49,6.77-2.21-.08.76-.12,1.33-.21,1.89A103.7,103.7,0,0,1,267.47,206c-1.31,3.71-2.72,7.39-4.24,11a60.4,60.4,0,0,1-9.72,15.18c-5.44,6.49-10.93,12.95-16.37,19.45a20.16,20.16,0,0,0-1.82,2.66,26.73,26.73,0,0,1-7.17,7.66c-1.07.79-2.18,1.67-3.73,1.17a1.61,1.61,0,0,0-1.12.4,13.06,13.06,0,0,1-5.5,2.26c-2.21.44-4.43.52-6.64.87a7.47,7.47,0,0,1-1.86-.18c-.23,0-.53-.16-.66-.06-1.63,1.26-3.32.45-4.93.06s-3.27-1.1-4.92-1.6a8.64,8.64,0,0,0-1.77-.17,2.29,2.29,0,0,1-.59-.33A1.18,1.18,0,0,0,197.07,264.69Z"/><path class="cls-1" d="M238.1,150.73a15,15,0,0,1-1.41.66c-2,.67-4,1.21-5.92,2-2.16.85-4.26,1.87-6.38,2.82a15.48,15.48,0,0,1-12.2.26c-1.73-.65-3.4-1.52-5.17-2-4-1.08-8-2-12-2.94a11.26,11.26,0,0,1-1.39-.34c-1.3-.47-1.18-.45-.77-1.88.16-.53.2-.63.69-.62,1.07,0,2.13-.07,3.2,0,.88,0,1.34-.27,1.45-1.16s.31-1.71,1.57-1.22c.1,0,.5-.39.61-.67.26-.7,0-1.79,1.33-1.61.11,0,.41-.38.37-.54-.2-.94.1-2-.72-2.82a8.53,8.53,0,0,0-2.8-2.44,1.15,1.15,0,0,1-.58-.4c-.91-1.52-2.49-2.13-3.94-2.93-.27-.15-.61-.55-.57-.77a1.16,1.16,0,0,1,.74-.65,3.34,3.34,0,0,1,1.22,0c.58.08,1.15.21,1.91.36a2.75,2.75,0,0,1,1.58-3.14.88.88,0,0,0,.39-.74c-.27-1.29-.14-2.65-1.39-3.7a5.32,5.32,0,0,0-3.22-1.61,6.38,6.38,0,0,1-1.82-.7,18.32,18.32,0,0,0-5.45-1,37.33,37.33,0,0,1-6-.55c-2-.47-4.14-.14-6.23-.18a19.93,19.93,0,0,1-3.37-.17,4.13,4.13,0,0,0-3.08.48,2.44,2.44,0,0,1-2.65.11,4.29,4.29,0,0,0-4,.27,2.84,2.84,0,0,1-2.4.23,2.56,2.56,0,0,0-1.35.12c-1.1.24-2.18.61-3.29.75a13.46,13.46,0,0,0-3.84,1.28,22.63,22.63,0,0,0-4.46,2.9c-1.25,1-1.69,1.94.08,3.46a1,1,0,0,0,1.29.21c.82-.43,1.93-.27,2.47-1.25a.57.57,0,0,1,.3-.18,84.08,84.08,0,0,1,8.59-2.88,14.8,14.8,0,0,1,8.12.41,9.48,9.48,0,0,0,3.48.61,3.62,3.62,0,0,1,2.23.92,2.45,2.45,0,0,0,2.38.73,3.33,3.33,0,0,1,2.78.54,15.18,15.18,0,0,1-2,.83c-1.65.42-3.33.71-5,1.15-1.49.41-2.95.91-4.41,1.42-2,.69-4,1.32-5.87,2.16a9.61,9.61,0,0,0-5.17,5.18c-.66,1.58-1,3.31-2.55,4.63a3.92,3.92,0,0,0,.84.41c1.16.23,2.4-.16,3.5.69.3.23,1-.08,1.55-.12s1.23-.07,1.84-.11l0,.4a6.72,6.72,0,0,1-1.09.19c-6.14.14-12.29.25-18.43.42-1.61,0-3.22.19-4.82.36A2,2,0,0,1,134.7,147c-.78-1.74-1.68-3.43-2.51-5.15a6.27,6.27,0,0,1-.47-1.34c-.18-.87-.11-.91,1.2-.94a12.28,12.28,0,0,0-2.57-4.43c-1.74-2.07-2.76-4.55-4.11-6.85-1-1.73-.69-3.25-.17-4.91a3.72,3.72,0,0,0,.17-1,10,10,0,0,1,2-5.07,8.29,8.29,0,0,0,1.54-4.46,1.5,1.5,0,0,1,.37-1c.92-1,1.9-2,2.86-2.94.41-.42.81-.86,1.2-1.31a1.05,1.05,0,0,0,.19-1.43,1.86,1.86,0,0,1,.17-1.45c.46-.94,1.23-1.71,1.18-2.89,0-.87,1.43-1.07,1-2.32a5.55,5.55,0,0,1,.29-2.5c.08-.47.29-.9-.49-.51,0,0-.35-.3-.33-.4.2-.67.46-1.31.68-2,.29-.83.88-1.71.76-2.48a3.69,3.69,0,0,1,.93-3.15,13.43,13.43,0,0,1-1.56-.71c-.79-.5.18-.88.15-1.41-.4-.19-1.16-.34-1.21-.62a3,3,0,0,1,.39-1.66,7.27,7.27,0,0,1,1-1.51c.46-.59,1-1.11.09-1.78-.11-.09-.07-.52,0-.72a11.66,11.66,0,0,1,.87-1.25l-.31-.27-2.9,2.86a2.56,2.56,0,0,1,1-2.82,4.45,4.45,0,0,0,1.22-2.17l-1,.32c0-.11,0-.25,0-.31a2.75,2.75,0,0,0,.8-2.58c-.11-.7.42-1.5.7-2.35l-1.23-.08c1-1.72,1.93-3.37,2.81-5.07.32-.61.85-.83,1.31-.6.75.38.9.07,1.06-.56a12.77,12.77,0,0,1,.54-1.69,4.49,4.49,0,0,1,.73-1.41c.34-.36,1-.77,1.34-.68s.63.76.85,1.22a5.14,5.14,0,0,1,.21,1c.08.33.15.92.29.94.61.1,1.63.26,1.8,0,.57-.94,1-.36,1.38,0,1.17.91,2.32,1.86,3.45,2.81a17,17,0,0,0,2.54,2l-1.33-1.76,0,0c.29-.3.57-.61.87-.9a1.05,1.05,0,0,1,1.59-.07c.59.56,1.08,1.23,1.72,1.73a36.61,36.61,0,0,0,3.3,2.36c.7.44,1.53.69,2.25,1.1a6.21,6.21,0,0,1,1,.9s0,.13.05.16.39.42.48.38c1.3-.5,1.84,2.21,3.47.63-1.31-.75-2.56-1.5-3.85-2.19S162.07,70.69,161,70a8.57,8.57,0,0,1-1.78-1.68c-.34-.38.09-1.29.59-1.22a7.92,7.92,0,0,1,2.21.66,1.43,1.43,0,0,1,.95,1.67c-.11.9,2.1,2.23,3.24,1.89a1.42,1.42,0,0,1,1.92.67c.1.15.19.36.33.41,1.18.44,1.57,1.46,1.87,2.89a8,8,0,0,1,.71-1.07.59.59,0,0,1,.55-.08c.54.5,1,1.08,1.55,1.58a3,3,0,0,0,.89.54,8.42,8.42,0,0,1,3.71,2.35,1.65,1.65,0,0,0,.72.5,16.94,16.94,0,0,1,5.45,3.61A17.25,17.25,0,0,0,187,84.6c3,1.68,6,3.33,9,5,1.6.9,3.16,1.86,4.75,2.79.25.15.62.46.77.38,1.77-.9,3.25,1.08,5,.47.2-.07.55.19.8.34,1.26.79,2.5,1.6,3.77,2.37.71.43,1.45.79,2.19,1.18,1.52.8,3,1.62,4.58,2.41.85.43,1.72.82,2.56,1.26,1.48.78,2.95,1.58,4.42,2.38a26.65,26.65,0,0,0,6.15,2.84,14.47,14.47,0,0,1,2.81,1.51c2,1,3.9,2.07,5.89,3,3.08,1.44,6.21,2.75,9.28,4.2,3.62,1.71,7.19,3.49,10.77,5.26.74.37,1.44.82,2.42,1.39a21.39,21.39,0,0,1-5.9,1.3c-1.52.13-3.06.21-4.57.46a38.48,38.48,0,0,1-7.12.2,13,13,0,0,0-8.06,2.24c-1.86,1.32-1.81,2.67-1.38,4.41.06.24.12.47.19.7.61,1.88.88,2,2.84,1.67a9,9,0,0,1,3.93,0c-.59.31-.79.5-1,.51a1.62,1.62,0,0,0-1.73,1.47c-.12.81-.78,1-1.34,1.31a25.88,25.88,0,0,0-7.84,6.42,15.36,15.36,0,0,0-1.11,1.83,1.57,1.57,0,0,0,.21,2.22,3.43,3.43,0,0,1,.54,1.64c.23,1,.41,1.19,1.42,1.06,1.46-.2,2.84-.25,3.83,1.18a2.18,2.18,0,0,0,1.25.58,13.2,13.2,0,0,0,1.78.13Z"/><path class="cls-1" d="M215,85.38a2.57,2.57,0,0,0,.69.2,3,3,0,0,0,.74-.2c-.11-.19-.18-.45-.35-.56-.36-.25-.76-.43-1.48-.82a4.53,4.53,0,0,1,1-.15c2.94.69,5.86,1.4,8.79,2.1.23.06.56.07.66.22,1.19,1.88,3.73,1.81,5,3.52a1.14,1.14,0,0,0,.79.37c2.71.17,4.27,2.16,6.06,3.78a3.6,3.6,0,0,0,1.53,1c-.38-.56-.79-1.1-1.13-1.69a1,1,0,0,1,0-.76.67.67,0,0,1,.62-.07c.8.75,1.9,1,2.57,2.08a7.77,7.77,0,0,0,4.11,3.74L243,96c2-.73,3.06.89,4.43,1.52l.19-.31-2.49-2.07c1.77.23,2.43,1,4.19,3.62,1.79.62,3,2.14,4.57,3A1.34,1.34,0,0,0,255,103c-.81,0-.94-.85-1.32-1.45-.39-.23-.84-.41-.84-1,.58.07,1,0,.62-.74-.12-.21-.36-.37-.35-.79l2.81,1.82c.35.24.72.48.29,1-.08.09.13.58.32.7a8.26,8.26,0,0,0,2.21,1.13,14,14,0,0,1,5.31,3.12,11.11,11.11,0,0,0,1.4.77,9,9,0,0,1,2.35,1.72,6.85,6.85,0,0,1-1-.22c-.83-.31-1.66-.63-2.47-1-.38-.16-.86-.32-1-.63-.84-1.46-2.26-1.28-3.73-1.51.12.28.13.49.23.55,1.24.71,2.5,1.37,3.73,2.1a31.64,31.64,0,0,0,5.71,2.76,5,5,0,0,1,3.73,4.9c.05,1.82.18,3.63.28,5.62-1.79-.29-2.71-1.46-3.76-2.44a8.82,8.82,0,0,0-1.47-1.28c-3.67-2-6.85-4.72-10.15-7.25-1.13-.86-2.14-1.88-3.22-2.8a2.36,2.36,0,0,0-1.36-.58l1.89,2.12-1.76-.28c.3,1,1.35.68,1.86,1.18a13.94,13.94,0,0,0,1.55,1.69,17.28,17.28,0,0,0,2.09,1,5.29,5.29,0,0,1,1.78,1.47c-1.48-.54-3-1-4.43-1.65-2.06-.92-4.07-2-6.08-3-1.33-.67-2.62-1.4-3.94-2.08a29,29,0,0,1-5.2-3.27,2.1,2.1,0,0,0-1.09-.15c-.45,0-.9,0-1.35,0l0,0a5.4,5.4,0,0,0,.78-.44c.53-.39.53-.74-.11-1L232,99.81c-1-.46-1.94-.93-2.9-1.42-.31-.16-.78-.33-.86-.59-.36-1.27-1.31-1.2-2.35-1.38a17.14,17.14,0,0,1-3.47-1.34c-.35-.15-.6-.6-.88.16-.1.28-1,.12-.91-.52.08-.81-.43-1-1-1.32q-2.65-1.49-5.29-3a5.52,5.52,0,0,1-.67-.6c2-.25,3.68-.43,5,1.17a1,1,0,0,0,1,.16,2.5,2.5,0,0,0,.79-.93,1.15,1.15,0,0,0-.45-.44,26,26,0,0,0-3.29-1.37,1.81,1.81,0,0,1-1.54-2.19,2.78,2.78,0,0,0-.19-.87Z"/><path class="cls-1" d="M257.5,148.46c1-2.37.67-2.59,3.62-1.73-.07-.33-.11-.59-.18-.85a1.2,1.2,0,0,1,1-1.57c1.45.09,1.76-1,2.4-1.8.26-.32.38-.61-.13-.8l.66-.87-1.36-.56a23.49,23.49,0,0,0,.48-3.19c0-.29-.6-.68-1-.87-1.8-.9-3.62-1.75-5.44-2.61-1.11-.53-1.35-1.16-.94-2.45.34-1,.69-1.21,2.07-1,.25,0,.71,0,.73-.08a1.38,1.38,0,0,1,1.13-1c1.6-.45,3.14-1.07,4.88-.81a27.22,27.22,0,0,0,3,0,5.2,5.2,0,0,1,2.07.29c.74.38,1.31,1,2.17.24a1.26,1.26,0,0,1,.74.51,3.53,3.53,0,0,1,.13,1.23l.39,14.46c0,.42,0,.84,0,1.25-.08,1.29-.17,1.42-1.48,1.49-4.76.26-9.52.48-14.28.71A6,6,0,0,1,257.5,148.46Z"/><path class="cls-1" d="M201.16,75.44a5.45,5.45,0,0,0-.88-1.12,17.62,17.62,0,0,1-3.67-3.06,2.07,2.07,0,0,0-1.08-.58c-.2-.06-.67.16-.67.26,0,1.09-.74,1-1.35.78a25.17,25.17,0,0,1-3.18-1.54c-.16-.09-.14-.51-.2-.78.27,0,.61-.12.8,0,.63.42,1.2.92,2,1.6-.06-1,.13-1.7-.94-1.78a1.84,1.84,0,0,1-.64-.29c-.24-.14-.22-.16-.2-1.1a1,1,0,0,0-.34-.53c-1-.94-2-1.85-3-2.8a1.24,1.24,0,0,1-.35-.78c0-.22.24-.45.38-.68.15.15.45.33.43.46-.1.69.31.94.83,1.19s.9.56,1.36.83.85.68,1.25.65c2.36-.2,4,1.83,6.21,2a1.92,1.92,0,0,1,1.31,1.06,4,4,0,0,0,2.19,2c2.15,1.15,4.39,2.16,6.41,3.51a33.36,33.36,0,0,1,5.86,5.1c.49.54,1.48.62,2.25.92,1.59.61,3.19,1.22,4.78,1.86a1.23,1.23,0,0,1,.58.67c-2.18,0-4.35-.07-6.24-1.32a3.21,3.21,0,0,0-2-.61,8.79,8.79,0,0,1-2.36-.69c-1.3-.4-2.62-.74-3.91-1.2a14.59,14.59,0,0,1-1.95-1l.2-.49,4.19,1.18a10.08,10.08,0,0,0,1,.35c.19,0,.4-.11.6-.17a5.5,5.5,0,0,0-.28-.6.53.53,0,0,0-.29-.2,29.87,29.87,0,0,0-6.52-1.6C203.36,75.69,202.09,75.88,201.16,75.44Z"/><path class="cls-1" d="M184,147c.3-.52.44-.83.64-1.11a9.87,9.87,0,0,0,2-4.32,1.25,1.25,0,0,1,1.31-1.17c.76-.06,1,.39,1.29,1,.35.81.72,1.62,1,2.45.4,1.14.26,1.67-.8,2.12A9.61,9.61,0,0,1,184,147Z"/><path class="cls-1" d="M247.15,145.88a8.21,8.21,0,0,1,.59-2.13,5.21,5.21,0,0,0,.87-3.21c0-.76.39-1,1.16-.95a4.35,4.35,0,0,1,3.21,2.78,1.48,1.48,0,0,1-.28.94,4.74,4.74,0,0,1-3.16,2.13C248.85,145.6,248.15,145.7,247.15,145.88Z"/><path class="cls-1" d="M238.14,150.77a1.61,1.61,0,0,1,1.94-.9c.17,0,.37.13.52.09.42-.11.83-.27,1.24-.41-.35-.27-.66-.66-1.05-.76-.84-.23-1.68-.35-1.5-1.45,1.22,0,2.43-.13,3.63-.11a4.57,4.57,0,0,1,1.28.42l-.5,1.42,2.6.47c-3,.47-5.49,1.41-8.2,1.19Z"/><path class="cls-1" d="M174.29,146.36a10.53,10.53,0,0,1-4.45-1.77.85.85,0,0,1-.12-1.4,6,6,0,0,1,1.67-1c.16-.08.59.14.71.33C172.83,143.76,173.51,145,174.29,146.36Z"/><path class="cls-1" d="M238.54,104.55c-.95-.48-1.91-1-2.86-1.44l-9.33-4.81a3.66,3.66,0,0,1-1.42-1.18c.55.23,1.12.41,1.64.69,1.69.88,3.32,1.86,5,2.68,1.55.74,3.2,1.27,4.76,2,1,.42,2.06.78,2.12,2.13Z"/><path class="cls-1" d="M215.05,85.34c-.1.08-.22.13-.28.23-1,1.56-1.06,1.63-2.6.56A30.12,30.12,0,0,1,209.66,84l0,0c.41-.14.94-.51,1.22-.37,1.36.66,3,.61,4.18,1.75Z"/><path class="cls-1" d="M209.66,84a6,6,0,0,1-4.35-.07c-.79-.29-.21-.33-.05-.59s-.12-.53-.29-.68c-.57-.5-1.18-.94-1.88-1.49a1.41,1.41,0,0,1,1.68.37,6.08,6.08,0,0,0,2.68,1.29,15,15,0,0,1,2.17,1.2Z"/><path class="cls-1" d="M202.22,80.09a6.33,6.33,0,0,1-1.07-.21c-1.42-.53-2.7-1.46-4.34-1.36-.28,0-.58-.47-.87-.72a13,13,0,0,1,1.11-.71c.11-.06.34.07.5.15l4.82,2.46Z"/><path class="cls-1" d="M204.08,175.61a1.58,1.58,0,0,1-1.55.9,3.47,3.47,0,0,1,.3-.87,4.93,4.93,0,0,0,1.27-2.7c0-.2.46-.39.72-.58a2.43,2.43,0,0,1,.06.75c-.22.81-.5,1.59-.75,2.38Z"/><path class="cls-1" d="M181.31,60.6c1.08.79,2.12,1.53,3.13,2.3.14.11.15.4.21.6-.22,0-.52.22-.64.13C182.94,62.82,181.09,62.7,181.31,60.6Z"/><path class="cls-1" d="M254,102a11.78,11.78,0,0,1-4.75-3.22l0,.06c1.05-.45,1.64.2,2.21.9l1.35.83a1.43,1.43,0,0,1,1.11,1.46Z"/><path class="cls-1" d="M209.28,88.46c-1.92-.33-3.4-1.57-5-2.59A9.28,9.28,0,0,1,209.28,88.46Z"/><path class="cls-1" d="M153.6,67.64c-.91-.92-1.81-1.84-2.9-2.93a6.66,6.66,0,0,1,1.56-.17c.27,0,.74.5.7.61-.39,1,.64,1.64.59,2.54Z"/><path class="cls-1" d="M201.16,75.44l0-.57a27.52,27.52,0,0,1,3.1,1.47c.43.27,0,.54-.41.57Z"/><path class="cls-1" d="M203.55,78.84a7.73,7.73,0,0,1-3.93-1.94A6.9,6.9,0,0,1,203.55,78.84Z"/><path class="cls-1" d="M193.33,74.05l-3.86-1.9A5,5,0,0,1,193.33,74.05Z"/><path class="cls-1" d="M293.76,95.84c-1.15-1-1-2.34-1.34-3.54C293.72,93.89,293.72,93.89,293.76,95.84Z"/><path class="cls-1" d="M211.93,76c.6.51,1.22,1,1.8,1.53.1.09.06.32.09.49-.21,0-.51.15-.61.06-.6-.52-1.15-1.09-1.71-1.64Z"/><path class="cls-1" d="M186.47,69.51c-1.79,0-2.22-1.8-3.49-2.5C184.21,67.15,184.24,67.17,186.47,69.51Z"/><path class="cls-1" d="M129.61,175.53l-.08-.12c0,.57.06,1.33-.79.63a9.86,9.86,0,0,1-1.36-1.86C128.73,174.13,129,175.05,129.61,175.53Z"/><path class="cls-1" d="M186.5,65.69l-2.3-1.17C185.43,64.47,186.17,64.62,186.5,65.69Z"/><path class="cls-1" d="M256.46,116.82l2.77,1.16-.13.32-2.78-1.13Z"/><path class="cls-1" d="M202.53,184l-1.82,2.21-.29-.24,1.81-2.21Z"/><path class="cls-1" d="M209.73,86.41l-1.3-.93C209.46,85.19,209.46,85.19,209.73,86.41Z"/><path class="cls-1" d="M245.16,195.2c-.68-.18-1.56.07-2-.93,1.07-.52,1.48.28,2,.94Z"/><path class="cls-1" d="M139.77,64.87a2.29,2.29,0,0,1,.21-.66c.21-.25.46-.46.69-.69.14.18.44.42.4.52a2.27,2.27,0,0,1-.58.76C140.38,64.89,140.16,64.84,139.77,64.87Z"/><path class="cls-1" d="M246.59,131.64l1.54-.48C247.65,132,247.65,132,246.59,131.64Z"/><path class="cls-1" d="M194.13,77.73c-.42-.21-.85-.39-1.26-.62a.75.75,0,0,1-.35-.71l1.81,1.08Z"/><path class="cls-1" d="M251.46,99.72l-2.21-.9C250.72,98,250.94,98.11,251.46,99.72Z"/><path class="cls-1" d="M181.21,158.93l4.61-2.82-1.71-.19c0-.16,0-.34.08-.36a11.76,11.76,0,0,1,2.89-.76,19.47,19.47,0,0,1,7.63,1.65c-.77.45-1.27.78-1.81,1a11.44,11.44,0,0,1-3.8.68c-2,.22-4,.51-6,.75A18.49,18.49,0,0,1,181.21,158.93Z"/><path class="cls-1" d="M154.8,187.54a16.16,16.16,0,0,1-6.56-5.25c-1.79-2.55-2.59-5.54-3.73-8.39a8.58,8.58,0,0,1,1.81,2.91c.84,1.64,1.64,3.3,2.57,4.89a13.23,13.23,0,0,0,5.55,5.16,4.14,4.14,0,0,1,.55.38Z"/><path class="cls-1" d="M208.38,230.22c0,.17,0,.23,0,.29-.07.34-2.24,1.25-2.45,1-.5-.62-.95-.48-1.56-.18a1.15,1.15,0,0,1-1-.27c-.36-.39,0-.65.34-1,1.17-1.09,2.49-.92,3.82-.54C207.84,229.62,208.12,230,208.38,230.22Z"/><path class="cls-1" d="M183.56,193c-.63.58-1,.89-1.36,1.27a1.29,1.29,0,0,1-1.43.39c-.61-.14-1.26-.11-1.88-.22a2.37,2.37,0,0,1-.7-.37c.15-.27.28-.75.47-.79A13,13,0,0,1,183.56,193Z"/><path class="cls-1" d="M198,198.17c1.93-.12,3.81-.18,5.5.8.27.15.34.64.5,1-.37.16-.73.33-1.1.45-.08,0-.23-.06-.32-.13a10,10,0,0,0-4.05-1.73C198.34,198.49,198.18,198.3,198,198.17Z"/><path class="cls-1" d="M189.63,260.67a23.69,23.69,0,0,1-6.5-4.23c2,.85,3.93,1.68,5.87,2.57.71.33.73,1,.61,1.7Z"/><path class="cls-1" d="M198.35,229c-.47.36-.89.64-1.26,1a1.45,1.45,0,0,1-1.93.27c-.22-.13-.32-.44-.47-.68a3.24,3.24,0,0,0,.69,0c.19,0,.5-.15.51-.26.15-1.36,1-1,1.81-.76A3.27,3.27,0,0,1,198.35,229Z"/><path class="cls-1" d="M214.68,231.24a3.54,3.54,0,0,0-2.56-.32,4.83,4.83,0,0,0-.64.22c0-.23-.13-.53,0-.68a8.51,8.51,0,0,1,1.06-1.19.51.51,0,0,1,.48,0c.34.41.48,1.15,1.28.66Z"/><path class="cls-1" d="M200.89,175.37a8.92,8.92,0,0,1,2.18-4.47A9.57,9.57,0,0,1,200.89,175.37Z"/><path class="cls-1" d="M194.7,228.13c-2.06.28-2.81-.36-2.44-1.9,0-.09.15-.25.2-.24a.59.59,0,0,1,.41.21.72.72,0,0,1,.09.5c-.14.76.16.92.87.81C194.05,227.48,194.33,227.85,194.7,228.13Z"/><path class="cls-1" d="M197.07,264.69a3,3,0,0,1-2.71-1.54c1.47-.19,2,.87,2.66,1.58Z"/><path class="cls-1" d="M254.92,190.13l-2.93.49-.06-.39,2.95-.36Z"/><path class="cls-1" d="M217,229.42c.22.35.47.57.42.68a5.77,5.77,0,0,1-.56,1c-.21-.19-.63-.45-.6-.54A5.83,5.83,0,0,1,217,229.42Z"/><path class="cls-1" d="M189.61,260.71c.31-.1.71-.38.92-.28a23.59,23.59,0,0,1,2,1.32l-.16.31-2.77-1.4Z"/><path class="cls-1" d="M165.3,242.25l-2.42-1.7.25-.31a3.25,3.25,0,0,1,2.13,2Z"/><path class="cls-1" d="M173.24,248.15l1.83,1.73-.26.28L173,248.4Z"/><path class="cls-1" d="M165.26,242.28a2.58,2.58,0,0,1,2.45,1.43c-1.17-.17-1.69-1-2.4-1.46Z"/><path class="cls-1" d="M228.08,228c.27-.44.52-.88.82-1.3a.42.42,0,0,1,.41-.08c.1.1.2.38.14.44-.35.39-.73.73-1.1,1.08Z"/><path class="cls-1" d="M190.43,223.73c-.1.55-.19,1.1-.29,1.64l-.49-.07.29-1.64Z"/><path class="cls-1" d="M212.3,202.78c.17-.07.29-.18.36-.15.36.15.7.34,1.05.52-.1.12-.18.33-.29.35C212.87,203.56,212.41,203.44,212.3,202.78Z"/><path class="cls-1" d="M237.86,97.28a25.59,25.59,0,0,1,2.45,1.11c1,.58,2.18,1,2.17,2.51,1.37,1.19,1.93,3.13,3.7,4,.88.42,1.63,1,1.19,2.19L242,102.58c0-.36,1.19.49.72-.47a8.29,8.29,0,0,0-1.24-1.9,4.51,4.51,0,0,0-1.82-1.3A2.66,2.66,0,0,1,237.86,97.28Z"/><path class="cls-1" d="M230.84,96.59c-1.11-.5-2.53-.73-3.26-1.56s-2.35-.32-2.89-1.69a2.58,2.58,0,0,1,2.51.2C228.52,94.4,230.14,94.93,230.84,96.59Z"/><path class="cls-1" d="M254,102l-.11,0a5,5,0,0,1,3.06,2.83c-1.14-.7-2-1.17-2.81-1.77C254,102.92,254.06,102.36,254,102Z"/><path class="cls-1" d="M243.74,100.51l2.65,1.72c-1.53.51-1.71-1.23-2.89-1.3Z"/><path class="cls-1" d="M229.9,92.44,232,93.75l-.21.38-2.12-1.25Z"/><path class="cls-1" d="M247.6,98.46l1.49,1.16-.25.32-1.52-1.18Z"/><path class="cls-1" d="M223.22,94l-1.31-.77C223,92.54,223,93.4,223.22,94Z"/></g></g></svg>